<svg width="30px" height="30px" viewBox="0 0 488 488" xmlns="http://www.w3.org/2000/svg">
<path d="M451.522,182.475l33.579-32.914c1.699-1.701,2.798-4.302,2.798-6.903l0,0c0-2.701-0.999-5.202-2.898-7.103l-33.979-34.014
	l33.979-33.314c1.899-1.901,2.998-4.402,2.998-7.103s-0.999-5.202-2.898-7.103L434.033,2.901C432.134,1,429.636,0,426.938,0
	c-2.698,0-5.197,1.1-7.096,3.001l-33.28,34.014L352.583,3.001C350.685,1.1,348.086,0.1,345.488,0.1
	c-2.698,0-5.197,1.1-7.096,3.001l-32.88,33.614L271.933,3.101c-3.898-3.902-10.194-3.902-14.091,0l-51.069,51.121
	c-1.899,1.901-2.898,4.402-2.898,7.103s1.099,5.202,2.898,7.103l74.454,74.531L143.012,281.315l-74.454-74.531
	c-1.899-1.901-4.397-2.901-7.096-2.901c-2.698,0-5.197,1.1-7.096,2.901L3.098,257.505c-3.898,3.902-3.898,10.204,0,14.106
	l33.579,33.614L2.998,338.038C1.099,339.939,0,342.44,0,345.141s0.999,5.202,2.898,7.103l34.179,34.214L3.098,419.772
	c-1.899,1.901-2.998,4.402-2.998,7.103s0.999,5.202,2.898,7.103l51.069,51.121C55.966,487,58.464,488,61.163,488
	c2.698,0,5.197-1.1,7.096-3.001l33.28-34.014l33.879,33.914c1.899,1.901,4.397,2.901,7.096,2.901s5.197-1.1,7.096-3.001
	l33.08-33.514l33.679,33.714c1.999,2.001,4.497,2.901,7.096,2.901c2.598,0,5.097-1,7.096-2.901l51.069-51.121
	c3.898-3.902,3.898-10.204,0-14.106l-74.454-74.531l138.215-138.357l74.454,74.531c1.999,2.001,4.497,2.901,7.096,2.901
	s5.097-1,7.096-2.901l51.069-51.121c1.899-1.901,2.898-4.402,2.898-7.103s-1.099-5.202-2.898-7.103L451.522,182.475z
		M426.938,24.11l36.777,36.815l-26.883,26.411l-18.089-18.107l-18.089-18.107L426.938,24.11z M345.388,24.11l118.327,118.349
	l-26.484,26.111v0L319.404,50.621L345.388,24.11z M61.163,463.89l-36.777-36.815l26.883-26.411l36.278,36.315L61.163,463.89z
		M142.512,463.79l-33.879-33.914l-50.269-50.321l-34.079-34.114l26.584-25.911l58.864,58.924l58.964,59.024L142.512,463.79z
		M260.34,427.075l-36.877,36.915l-33.679-33.714L57.964,298.322l-33.679-33.714l36.877-36.915L260.34,427.075z M192.981,331.236
	l-36.178-36.215l138.215-138.357l36.178,36.215L192.981,331.236z M426.838,260.307L426.838,260.307l-82.849-82.934l-41.874-41.917
	L227.66,60.925l36.877-36.915l33.679,33.714l131.819,131.954l33.679,33.714L426.838,260.307z"/>
</svg>
