<svg height="30" viewBox="0 0 400 400" width="30" xmlns="http://www.w3.org/2000/svg">
	<path d="m199.996 0c-110.283 0-199.996 89.72-199.996 200s89.713 200 199.996 200 200.004-89.72 200.004-200-89.721-200-200.004-200zm0 373.77c-95.816 0-173.766-77.954-173.766-173.77 0-95.817 77.949-173.769 173.766-173.769s173.771 77.953 173.771 173.769c.001 95.816-77.955 173.77-173.771 173.77z"/>
	<path d="m272.406 134.526-103.131 103.126-41.689-41.68c-5.123-5.117-13.422-5.12-18.545.003-5.125 5.125-5.125 13.425 0 18.548l50.963 50.955c2.561 2.558 5.916 3.838 9.271 3.838s6.719-1.28 9.279-3.842c.008-.011.014-.022.027-.035l112.369-112.368c5.125-5.12 5.125-13.426 0-18.546-5.122-5.123-13.427-5.123-18.544.001z"/>
</svg>